<?xml version="1.0" standalone="no"?><!-- Generator: Gravit.io --><svg xmlns="http://www.w3.org/2000/svg" xmlns:xlink="http://www.w3.org/1999/xlink" style="isolation:isolate" viewBox="0 0 512 512" width="512" height="512"><defs><clipPath id="_clipPath_mMK59wSux5yQjVRbVH6aV5Amf9AOyeIZ"><rect width="512" height="512"/></clipPath></defs><g clip-path="url(#_clipPath_mMK59wSux5yQjVRbVH6aV5Amf9AOyeIZ)"><g id="Grupo"><path d=" M 278.748 269.884 C 272.538 275.911 264.158 279.232 255.503 279.101 C 246.835 278.971 238.573 275.388 232.532 269.165 C 226.505 262.955 223.185 254.575 223.315 245.92 C 223.446 237.252 227.028 228.989 233.252 222.949 L 445.84 16.801 L 479.562 23.286 L 499.5 470.019 C 499.5 478.673 496.062 487.001 489.93 493.12 C 483.798 499.252 475.483 502.703 466.815 502.703 C 458.161 502.703 449.833 499.252 443.714 493.12 C 437.582 487.001 434.131 478.673 434.131 470.019 L 434.131 119.209 L 278.748 269.884 Z " fill="rgb(102,102,102)"/><path d=" M 434.131 41.981 C 434.131 33.327 437.582 24.999 443.714 18.88 C 449.833 12.748 458.161 9.297 466.815 9.297 C 475.483 9.297 483.798 12.748 489.93 18.88 C 496.062 24.999 499.5 33.327 499.5 41.981 L 499.5 470.019 C 499.5 478.673 496.062 487.001 489.93 493.12 C 483.798 499.252 475.483 502.703 466.815 502.703 C 458.161 502.703 449.833 499.252 443.714 493.12 C 437.582 487.001 434.131 478.673 434.131 470.019 L 434.131 41.981 Z " fill="rgb(248,7,89)"/><path d=" M 12.5 41.981 C 12.5 33.327 15.952 24.999 22.083 18.88 C 28.202 12.748 36.53 9.297 45.185 9.297 C 53.853 9.297 62.167 12.748 68.299 18.88 C 74.431 24.999 77.869 33.327 77.869 41.981 L 77.869 470.019 C 77.869 478.673 74.431 487.001 68.299 493.12 C 62.167 499.252 53.853 502.703 45.185 502.703 C 36.53 502.703 28.202 499.252 22.083 493.12 C 15.952 487.001 12.5 478.673 12.5 470.019 L 12.5 41.981 Z " fill="rgb(248,7,89)"/><path d=" M 77.869 470.019 C 77.869 478.673 74.418 487.001 68.286 493.12 C 62.167 499.252 53.839 502.703 45.185 502.703 C 36.517 502.703 28.202 499.252 22.07 493.12 C 15.938 487.001 12.5 478.673 12.5 470.019 L 45.185 69.044 L 65.122 16.749 L 78.19 28.467 L 278.748 222.949 C 284.972 228.989 288.554 237.252 288.685 245.92 C 288.815 254.575 285.495 262.955 279.468 269.165 C 273.427 275.388 265.165 278.971 256.497 279.101 C 247.842 279.232 239.462 275.911 233.252 269.884 L 77.869 119.209 L 77.869 470.019 Z " fill="rgb(248,7,89)"/></g></g></svg>