<?xml version="1.0" standalone="no"?><!-- Generator: Gravit.io --><svg xmlns="http://www.w3.org/2000/svg" xmlns:xlink="http://www.w3.org/1999/xlink" style="isolation:isolate" viewBox="0 0 509.456 382.352" width="509.456" height="382.352"><defs><clipPath id="_clipPath_hozXSmq6oRYVpxyg5AY3ZMHOffRU9u3Z"><rect width="509.456" height="382.352"/></clipPath></defs><g clip-path="url(#_clipPath_hozXSmq6oRYVpxyg5AY3ZMHOffRU9u3Z)"><g opacity="0.75"><path d=" M 508.357 346.3 C 510.427 353.505 509.548 361.224 505.927 367.79 C 502.283 374.343 496.207 379.184 489.003 381.254 C 481.798 383.323 474.079 382.444 467.513 378.823 C 460.96 375.179 456.119 369.104 454.049 361.899 L 360.458 36.052 C 358.389 28.847 359.268 21.128 362.888 14.562 C 366.532 8.009 372.608 3.168 379.813 1.098 C 387.018 -0.971 394.736 -0.092 401.302 3.529 C 407.855 7.173 412.696 13.248 414.766 20.453 L 508.357 346.3 Z " fill="rgb(248,7,89)"/></g><g opacity="0.75"><path d=" M 1.098 346.3 C -0.971 353.505 -0.092 361.224 3.529 367.79 C 7.173 374.343 13.248 379.184 20.453 381.254 C 27.658 383.323 35.377 382.444 41.943 378.823 C 48.496 375.179 53.337 369.104 55.406 361.899 L 148.998 36.052 C 151.067 28.847 150.188 21.128 146.567 14.562 C 142.923 8.009 136.848 3.168 129.643 1.098 C 122.438 -0.971 114.72 -0.092 108.154 3.529 C 101.6 7.173 96.759 13.248 94.69 20.453 L 1.098 346.3 Z " fill="rgb(248,7,89)"/></g><g opacity="0.75"><path d=" M 142.091 7.062 L 274.535 123.836 C 280.148 128.79 283.576 135.778 284.047 143.255 C 284.517 150.732 281.994 158.097 277.04 163.709 C 272.087 169.322 265.099 172.75 257.622 173.221 C 250.144 173.692 242.78 171.168 237.167 166.214 L 104.723 49.44 C 99.11 44.487 95.682 37.499 95.211 30.022 C 94.74 22.544 97.264 15.18 102.218 9.567 C 107.171 3.955 114.159 0.527 121.636 0.056 C 129.114 -0.415 136.478 2.109 142.091 7.062 Z " fill="rgb(200,6,71)"/></g><g opacity="0.75"><path d=" M 368.408 7.062 L 235.963 123.836 C 230.351 128.79 226.923 135.778 226.452 143.255 C 225.981 150.732 228.505 158.097 233.458 163.709 C 238.412 169.322 245.399 172.75 252.877 173.221 C 260.354 173.692 267.718 171.168 273.331 166.214 L 405.776 49.44 C 411.388 44.487 414.816 37.499 415.287 30.022 C 415.758 22.544 413.234 15.18 408.281 9.567 C 403.327 3.955 396.34 0.527 388.862 0.056 C 381.385 -0.415 374.021 2.109 368.408 7.062 Z " fill="rgb(249,113,158)"/></g></g></svg>